<svg width="68" height="69" viewBox="0 0 68 69" fill="none" xmlns="http://www.w3.org/2000/svg">
<path d="M62.6902 34.2344C62.6765 34.2011 62.701 34.1506 62.7656 34.0857C62.78 34.1199 62.7541 34.1685 62.6902 34.2344Z" fill="#9A85DA"/>
<path d="M67.9294 44.4503C68.0469 48.053 68.1583 51.6405 67.0217 55.1494C64.3913 63.2697 56.8066 68.9592 48.394 68.9816C38.8389 69.0071 29.2837 69.0046 19.7286 68.9832C9.63017 68.9606 1.10453 61.0866 0.116685 50.8911C0.0466585 50.1683 0.115566 49.4318 0.163991 48.5898C0.268095 48.1541 0.328066 47.8302 0.42013 47.4565C1.91507 42.5016 5.84515 39.0571 10.5652 38.5689C14.2517 38.1876 17.9404 37.8282 21.6283 37.4616C32.4808 36.3829 43.335 35.3205 54.1854 34.2206C58.9501 33.7375 62.8367 35.2792 65.7516 39.1852C66.9185 40.7489 67.4749 42.5796 67.9294 44.4503ZM17.0568 61.103C20.945 57.1562 24.8342 53.2105 28.7206 49.2619C29.6833 48.2839 29.7568 47.1639 28.9251 46.334C28.1479 45.5584 27.0176 45.6638 26.1001 46.5957C23.8737 48.857 21.6401 51.1111 19.423 53.3817C18.286 54.5461 17.178 55.7397 16.0149 56.9643C14.4727 55.3892 13.0631 53.9497 11.6538 52.51C10.728 51.5641 9.64999 51.4718 8.83151 52.2688C8.01179 53.0671 8.07179 54.1901 8.99183 55.1327C9.74337 55.9027 10.5036 56.6639 11.2564 57.4326C12.8132 59.0221 14.3677 60.6139 16.0058 62.2893C16.372 61.8725 16.6738 61.5291 17.0568 61.103Z" fill="#010101"/>
<path d="M67.9542 44.3749C67.4749 42.5796 66.9185 40.7489 65.7516 39.1852C62.8367 35.2792 58.9501 33.7375 54.1854 34.2206C43.335 35.3205 32.4808 36.3829 21.6284 37.4616C17.9404 37.8282 14.2517 38.1876 10.5652 38.5689C5.84515 39.0571 1.91508 42.5016 0.369106 47.4108C0.260549 47.2573 0.21295 47.0997 0.212862 46.942C0.208805 39.8542 0.151987 32.7656 0.25698 25.6794C0.277771 24.2762 0.39566 22.7445 1.27561 21.4285C1.31985 21.6498 1.35352 21.8182 1.3872 21.9867C1.446 21.9814 1.5048 21.9762 1.56361 21.971C1.5389 21.4271 1.5142 20.8833 1.49064 20.3417C1.49179 20.344 1.48709 20.3419 1.54397 20.3355C1.7234 20.0609 1.84596 19.7927 1.97069 19.5273C1.97288 19.5301 1.96604 19.5288 2.00418 19.5115C2.06812 19.4457 2.09393 19.3971 2.1163 19.3543C2.11287 19.3601 2.10701 19.348 2.16651 19.3502C2.61691 18.8088 3.00779 18.2651 3.40492 17.7294C3.41116 17.7373 3.39382 17.7271 3.44986 17.7252C4.33259 17.0244 5.15927 16.3254 6.00843 15.6159C6.0309 15.6053 6.08027 15.6092 6.14628 15.6158C6.80903 15.3709 7.3892 15.0586 8.0072 14.8853C8.61883 14.7139 9.32824 14.8184 9.89004 14.5637C11.3231 13.9142 12.7255 14.1764 14.1784 14.3915C15.0507 14.5205 15.9611 14.3836 16.9174 14.3572C17.1054 14.3638 17.2306 14.3793 17.372 14.449C18.3069 14.9456 19.256 14.9007 20.2798 14.6777C20.4703 14.6885 20.5969 14.7072 20.7338 14.7831C20.8902 14.9383 21.0293 15.108 21.1832 15.1231C22.5007 15.2527 23.8203 15.3618 25.1404 15.4624C26.7266 15.5832 28.315 15.6764 29.9003 15.807C31.0083 15.8983 32.1142 16.0199 33.2185 16.1499C34.8715 16.3445 36.5177 16.6581 38.1752 16.7365C39.8957 16.8179 41.5825 17.3667 43.3241 17.1042C43.4208 17.0897 43.5275 17.1611 43.6318 17.1781C44.7915 17.3673 45.9457 17.6222 47.1129 17.7251C49.0141 17.8927 50.9239 17.9604 52.83 18.0708C52.9098 18.0754 52.9895 18.0835 53.0688 18.0936C54.8777 18.3231 56.6865 18.5531 58.4962 18.7831C58.4869 18.8778 58.4735 19.0148 58.4779 18.9694C59.0958 19.1119 59.6532 19.1807 60.1662 19.3721C61.0732 19.7105 61.9531 20.1236 62.8433 20.5059C62.8422 20.5064 62.843 20.5042 62.8476 20.5615C63.0202 20.7311 63.1884 20.8434 63.3574 20.9615C63.3583 20.9673 63.3483 20.9613 63.3602 21.0162C64.208 22.0469 65.1846 22.9345 65.8446 24.0205C66.6777 25.3912 67.4995 26.8287 67.509 28.5499C67.51 28.7421 67.7768 28.9329 67.9204 29.1244C67.931 29.1988 67.9415 29.2732 67.9044 29.4546C67.8416 32.7112 67.8247 35.8609 67.8177 39.0106C67.8175 39.1288 67.9132 39.2473 67.9642 39.3657C67.9691 41.0103 67.974 42.6549 67.9542 44.3749Z" fill="#9B82F6"/>
<path d="M17.3557 14.3948C17.2306 14.3793 17.1054 14.3638 16.8518 14.34C14.542 14.1032 12.3674 13.6447 10.1629 14.0193C8.70211 14.2676 7.25657 14.5917 6.08026 15.6092C6.08026 15.6092 6.0309 15.6053 5.94959 15.6169C5.04346 16.328 4.21864 17.0276 3.39382 17.7271C3.39382 17.7271 3.41116 17.7373 3.35164 17.74C2.89709 18.2778 2.50205 18.8129 2.10701 19.348C2.10701 19.348 2.11287 19.3601 2.07617 19.3687C2.01499 19.4277 1.99052 19.4783 1.96604 19.5288C1.96604 19.5288 1.97288 19.5301 1.92395 19.5536C1.74571 19.832 1.61639 20.087 1.48708 20.3419C1.48708 20.3419 1.49179 20.344 1.44612 20.3746C1.24632 20.7154 1.06419 21.0148 0.943626 21.3379C0.655541 22.11 0.396464 22.8932 0.125674 23.672C-0.136586 20.2267 -0.06081 16.7975 1.06097 13.5004C2.27743 9.92496 4.39452 6.90659 7.26856 4.53442C9.91144 2.35306 12.909 0.758926 16.3635 0.352507C18.1794 0.138868 20.017 0.0311306 21.8453 0.0248828C30.9184 -0.00613266 39.9918 -0.0108048 49.065 0.0260639C52.379 0.0395296 55.4342 1.10064 58.2717 2.79224C61.5374 4.73911 64.049 7.46077 65.8121 10.8409C66.8562 12.8425 67.6666 15.0037 67.7758 17.2784C67.9456 20.814 67.8935 24.3605 67.8781 27.9331C67.2655 26.5983 66.877 25.1246 66.106 23.899C65.4021 22.7802 64.2839 21.9299 63.3483 20.9613C63.3483 20.9613 63.3583 20.9673 63.3466 20.9106C63.171 20.7373 63.007 20.6207 62.843 20.5042C62.843 20.5042 62.8422 20.5064 62.8184 20.457C61.5359 19.4525 60.1351 18.7703 58.586 18.5596C55.7933 18.1799 52.9877 17.8942 50.1846 17.5984C47.5917 17.3248 44.9949 17.0907 42.4 16.8367C39.4346 16.5465 36.469 16.2578 33.5042 15.9603C31.0686 15.7159 28.6352 15.4495 26.1989 15.212C24.3753 15.0342 22.5487 14.8869 20.7234 14.726C20.5969 14.7072 20.4703 14.6885 20.2143 14.6634C19.1751 14.5697 18.2654 14.4822 17.3557 14.3948Z" fill="#FBE7A3"/>
<path d="M0.120735 23.7412C0.396467 22.8933 0.655544 22.11 0.943629 21.3379C1.06419 21.0148 1.24633 20.7154 1.44498 20.3723C1.5142 20.8833 1.5389 21.4271 1.56361 21.971C1.5048 21.9762 1.446 21.9814 1.3872 21.9867C1.35352 21.8182 1.31985 21.6498 1.27561 21.4285C0.39566 22.7446 0.277771 24.2762 0.25698 25.6794C0.151986 32.7656 0.208805 39.8542 0.212862 46.942C0.21295 47.0997 0.260549 47.2573 0.337019 47.4606C0.328073 47.8302 0.268101 48.1541 0.161817 48.5191C0.088036 48.3478 0.0366244 48.1353 0.0365412 47.9227C0.033706 40.4529 0.0339896 32.9831 0.0403884 25.5133C0.0408773 24.9456 0.089527 24.378 0.120735 23.7412Z" fill="#9A85DA"/>
<path d="M63.3602 21.0162C64.2839 21.9299 65.4021 22.7802 66.106 23.899C66.877 25.1246 67.2655 26.5982 67.8584 28.0117C67.9104 28.3693 67.9247 28.679 67.9298 29.0565C67.7769 28.9329 67.51 28.7421 67.509 28.5499C67.4995 26.8287 66.6777 25.3912 65.8446 24.0205C65.1846 22.9345 64.208 22.0469 63.3602 21.0162Z" fill="#9A85DA"/>
<path d="M67.9727 39.2902C67.9132 39.2473 67.8175 39.1288 67.8177 39.0106C67.8247 35.8609 67.8416 32.7112 67.8984 29.5109C67.9538 32.7117 67.9675 35.9632 67.9727 39.2902Z" fill="#9A85DA"/>
<path d="M17.0162 61.1443C16.6738 61.5291 16.372 61.8725 16.0058 62.2893C14.3677 60.6139 12.8132 59.0221 11.2564 57.4326C10.5036 56.664 9.74338 55.9027 8.99184 55.1327C8.0718 54.1901 8.01181 53.0671 8.83153 52.2688C9.65 51.4718 10.728 51.5642 11.6538 52.51C13.0631 53.9497 14.4727 55.3892 16.0149 56.9643C17.178 55.7397 18.286 54.5461 19.423 53.3817C21.6401 51.1111 23.8738 48.857 26.1001 46.5957C27.0176 45.6638 28.1479 45.5584 28.9251 46.334C29.7569 47.1639 29.6833 48.2839 28.7206 49.2619C24.8342 53.2105 20.945 57.1562 17.0162 61.1443Z" fill="#FBFBFB"/>
<path d="M20.7338 14.7831C22.5487 14.8869 24.3753 15.0342 26.199 15.212C28.6352 15.4495 31.0686 15.7159 33.5042 15.9603C36.469 16.2578 39.4346 16.5465 42.4 16.8367C44.9949 17.0907 47.5917 17.3248 50.1846 17.5984C52.9878 17.8942 55.7933 18.1799 58.586 18.5596C60.1351 18.7703 61.5359 19.4525 62.8194 20.4565C61.9531 20.1236 61.0732 19.7105 60.1662 19.3721C59.6532 19.1807 59.0958 19.1119 58.4779 18.9694C58.4735 19.0148 58.4869 18.8778 58.4962 18.7832C56.6866 18.5531 54.8777 18.3231 53.0688 18.0936C52.9895 18.0835 52.9098 18.0754 52.8301 18.0708C50.9239 17.9604 49.0141 17.8927 47.1129 17.7251C45.9457 17.6223 44.7915 17.3673 43.6318 17.1781C43.5275 17.1611 43.4209 17.0897 43.3242 17.1042C41.5826 17.3667 39.8957 16.8179 38.1753 16.7365C36.5177 16.6581 34.8715 16.3445 33.2185 16.1499C32.1142 16.0199 31.0083 15.8983 29.9003 15.807C28.315 15.6764 26.7266 15.5832 25.1405 15.4624C23.8203 15.3618 22.5007 15.2527 21.1832 15.1231C21.0293 15.108 20.8902 14.9383 20.7338 14.7831Z" fill="#9A85DA"/>
<path d="M6.14627 15.6158C7.25657 14.5917 8.70211 14.2676 10.1629 14.0193C12.3674 13.6447 14.542 14.1032 16.7889 14.349C15.9611 14.3836 15.0507 14.5205 14.1784 14.3915C12.7255 14.1764 11.3231 13.9142 9.89004 14.5637C9.32824 14.8184 8.61883 14.7139 8.0072 14.8853C7.3892 15.0586 6.80903 15.3709 6.14627 15.6158Z" fill="#9A85DA"/>
<path d="M3.44987 17.7252C4.21865 17.0275 5.04347 16.328 5.92712 15.6274C5.15927 16.3254 4.3326 17.0244 3.44987 17.7252Z" fill="#9A85DA"/>
<path d="M17.372 14.449C18.2654 14.4822 19.1751 14.5697 20.1503 14.6714C19.256 14.9007 18.3069 14.9456 17.372 14.449Z" fill="#9A85DA"/>
<path d="M2.16652 19.3502C2.50206 18.8129 2.8971 18.2778 3.34542 17.732C3.0078 18.2651 2.61691 18.8088 2.16652 19.3502Z" fill="#9A85DA"/>
<path d="M1.54397 20.3355C1.6164 20.087 1.74571 19.832 1.92177 19.5508C1.84596 19.7927 1.72341 20.0609 1.54397 20.3355Z" fill="#9A85DA"/>
</svg>
